<svg version="1.1" id="Capa_1" xmlns="http://www.w3.org/2000/svg" xmlns:xlink="http://www.w3.org/1999/xlink" x="0px" y="0px" viewBox="0 0 468.293 468.293" style="enable-background:new 0 0 468.293 468.293;" xml:space="preserve"><rect x="106.796" style="fill:#3A556A;" width="254.695" height="468.293"/><rect x="6.244" style="fill:#2F4859;" width="106.459" height="468.293"/><g><rect x="31.288" y="31.632" style="fill:#EBF0F3;" width="56.382" height="50.894"/><rect x="31.288" y="119.989" style="fill:#EBF0F3;" width="56.382" height="50.894"/><rect x="31.288" y="209.052" style="fill:#EBF0F3;" width="56.382" height="50.894"/><rect x="31.288" y="297.397" style="fill:#EBF0F3;" width="56.382" height="50.894"/><rect x="31.288" y="385.748" style="fill:#EBF0F3;" width="56.382" height="50.894"/></g><rect x="355.59" style="fill:#2F4859;" width="106.459" height="468.293"/><g><rect x="380.628" y="31.632" style="fill:#EBF0F3;" width="56.382" height="50.894"/><rect x="380.628" y="119.989" style="fill:#EBF0F3;" width="56.382" height="50.894"/><rect x="380.628" y="209.052" style="fill:#EBF0F3;" width="56.382" height="50.894"/><rect x="380.628" y="297.397" style="fill:#EBF0F3;" width="56.382" height="50.894"/><rect x="380.628" y="385.748" style="fill:#EBF0F3;" width="56.382" height="50.894"/><path style="fill:#EBF0F3;" d="M309.073,316.328H159.22c-10.345,0-18.732-8.386-18.732-18.732v-126.9 c0-10.345,8.386-18.732,18.732-18.732h149.854c10.345,0,18.732,8.386,18.732,18.732v126.9 C327.805,307.941,319.418,316.328,309.073,316.328z"/><path style="fill:#EBF0F3;" d="M296.585,111.6H171.707c-17.242,0-31.22-13.977-31.22-31.22V0h187.317v80.381 C327.805,97.623,313.827,111.6,296.585,111.6z"/><path style="fill:#EBF0F3;" d="M296.585,356.693H171.707c-17.242,0-31.22,13.977-31.22,31.22v80.381h187.317v-80.381 C327.805,370.67,313.827,356.693,296.585,356.693z"/></g><path style="fill:#E56353;" d="M278.783,223.817l-62.747-42.646c-8.29-5.634-19.507,0.303-19.507,10.328v85.294 c0,10.024,11.216,15.963,19.508,10.328l62.747-42.648C286.074,239.517,286.074,228.773,278.783,223.817z"/></svg>